<svg width="100" height="100" viewBox="0 0 100 100" xmlns="http://www.w3.org/2000/svg">
  <circle cx="50" cy="50" r="40" fill="#FFC627" opacity="0.2"/>
  <path d="M50,10 L55,25 L70,25 L60,35 L65,50 L50,40 L35,50 L40,35 L30,25 L45,25 Z" fill="#D4A017" stroke="#8B6914" stroke-width="1"/>
  <path d="M30,50 C30,40 40,30 50,30 C60,30 70,40 70,50 C70,60 60,70 50,70 C40,70 30,60 30,50 Z" fill="none" stroke="#8B6914" stroke-width="2"/>
  <path d="M20,50 C20,35 35,20 50,20 C65,20 80,35 80,50 C80,65 65,80 50,80 C35,80 20,65 20,50 Z" fill="none" stroke="#8B6914" stroke-width="1"/>
  <path d="M50,50 L50,90" stroke="#8B6914" stroke-width="1"/>
  <path d="M45,85 L55,85" stroke="#8B6914" stroke-width="1"/>
  <path d="M40,80 L60,80" stroke="#8B6914" stroke-width="1"/>
</svg>
