<svg width="100" height="100" viewBox="0 0 100 100" xmlns="http://www.w3.org/2000/svg">
  <circle cx="50" cy="50" r="45" fill="#00AFCA" opacity="0.2"/>
  <circle cx="50" cy="50" r="40" fill="#FFC627" opacity="0.2"/>
  <path d="M50,10 C70,10 85,25 85,45 C85,65 70,80 50,80 C30,80 15,65 15,45 C15,25 30,10 50,10 Z" fill="#FFC627" opacity="0.5"/>
  <path d="M50,15 C67.5,15 80,27.5 80,45 C80,62.5 67.5,75 50,75 C32.5,75 20,62.5 20,45 C20,27.5 32.5,15 50,15 Z" fill="#00AFCA" opacity="0.5"/>
  <path d="M50,20 C65,20 75,30 75,45 C75,60 65,70 50,70 C35,70 25,60 25,45 C25,30 35,20 50,20 Z" fill="#FFC627" opacity="0.5"/>
  <path d="M40,35 L60,35 L60,55 L40,55 Z" fill="none" stroke="#00AFCA" stroke-width="2"/>
  <path d="M35,30 L65,30 L65,60 L35,60 Z" fill="none" stroke="#00AFCA" stroke-width="2"/>
  <path d="M50,25 L50,65" stroke="#00AFCA" stroke-width="2"/>
  <path d="M30,45 L70,45" stroke="#00AFCA" stroke-width="2"/>
  <path d="M50,80 L50,90" stroke="#00AFCA" stroke-width="2"/>
  <path d="M45,85 L55,85" stroke="#00AFCA" stroke-width="2"/>
</svg>
